# xmcd
#
# Track frame offsets: 
#        150
#        14692
#        27715
#        39677
#        50657
#        66415
#        77715
#        88002
#        100145
#        113412
#
# Disc length: 1697 seconds
#
# Revision: 3
# Processed by: cddbd v1.5.2PL0 Copyright (c) Steve Scherf et al.
# Submitted via: ExactAudioCopy v1.1
#
DISCID=85069f0a
DTITLE=Freddy Fender - Wasted Days and Wasted Nights
DYEAR=1999
DGENRE=Country
TTITLE0=Wasted Days and Wasted Nights
TTITLE1=Almost Persuaded
TTITLE2=I'm Leaving It Up To You
TTITLE3=A Man Can Cry
TTITLE4=Wild Side Of Life
TTITLE5=She's About A Mover
TTITLE6=Before The Next Teardrop Falls
TTITLE7=Sweet Summer Day
TTITLE8=Going Out With The Tide
TTITLE9=Baby I Want To Love You
EXTD=
EXTT0=
EXTT1=
EXTT2=
EXTT3=
EXTT4=
EXTT5=
EXTT6=
EXTT7=
EXTT8=
EXTT9=
PLAYORDER=
